<svg width="1200" height="600" xmlns="http://www.w3.org/2000/svg">
  <!-- Background -->
  <rect width="1200" height="600" fill="#f8f9fa"/>
  
  <!-- Title -->
  <text x="600" y="30" text-anchor="middle" font-family="Arial, sans-serif" font-size="20" font-weight="bold" fill="#202124">
    MCP Server Architecture
  </text>
  
  <!-- Local Environment -->
  <rect x="50" y="60" width="280" height="480" fill="#FFF8E1" stroke="#4285f4" stroke-width="2" rx="10"/>
  <text x="190" y="85" text-anchor="middle" font-family="Arial, sans-serif" font-size="14" font-weight="bold" fill="#1a73e8">
    Local Environment
  </text>
  
  <!-- Google Cloud Platform -->
  <rect x="380" y="60" width="770" height="480" fill="#E3F2FD" stroke="#ff8f00" stroke-width="2" rx="10"/>
  <text x="765" y="85" text-anchor="middle" font-family="Arial, sans-serif" font-size="14" font-weight="bold" fill="#e65100">
    Google Cloud Platform
  </text>
  
  <!-- Cloud Run Container -->
  <rect x="400" y="100" width="730" height="180" fill="#F1F8E9" stroke="#1976d2" stroke-width="2" stroke-dasharray="5,5" rx="8"/>
  <text x="765" y="125" text-anchor="middle" font-family="Arial, sans-serif" font-size="13" font-weight="bold" fill="#1976d2">
    Google Cloud Run - Serverless Container Platform
  </text>
  <text x="765" y="140" text-anchor="middle" font-family="Arial, sans-serif" font-size="10" fill="#1565c0">
    Auto-scaling • Pay-per-use • Zero server management
  </text>
  
  <!-- GitHub Copilot Agent -->
  <rect x="80" y="120" width="100" height="60" fill="#24292e" rx="8"/>
  <text x="130" y="140" text-anchor="middle" font-family="Arial, sans-serif" font-size="11" font-weight="bold" fill="white">GitHub Copilot</text>
  <text x="130" y="155" text-anchor="middle" font-family="Arial, sans-serif" font-size="9" fill="white">Agent Mode</text>
  <text x="130" y="170" text-anchor="middle" font-family="Arial, sans-serif" font-size="9" fill="white">MCP Integration</text>
  
  <!-- Web Client -->
  <rect x="80" y="200" width="100" height="60" fill="#4285F4" rx="8"/>
  <text x="130" y="220" text-anchor="middle" font-family="Arial, sans-serif" font-size="11" font-weight="bold" fill="white">Web Client</text>
  <text x="130" y="235" text-anchor="middle" font-family="Arial, sans-serif" font-size="9" fill="white">Browser GUI</text>
  <text x="130" y="250" text-anchor="middle" font-family="Arial, sans-serif" font-size="9" fill="white">mcp_web_client.html</text>
  
  <!-- Claude Desktop -->
  <rect x="80" y="280" width="100" height="60" fill="#FBBC04" rx="8"/>
  <text x="130" y="300" text-anchor="middle" font-family="Arial, sans-serif" font-size="11" font-weight="bold" fill="white">Claude Desktop</text>
  <text x="130" y="315" text-anchor="middle" font-family="Arial, sans-serif" font-size="9" fill="white">MCP Integration</text>
  <text x="130" y="330" text-anchor="middle" font-family="Arial, sans-serif" font-size="9" fill="white">JSON-RPC 2.0</text>
  
  <!-- MCP Server -->
  <rect x="420" y="160" width="140" height="80" fill="#9C27B0" rx="8"/>
  <text x="490" y="180" text-anchor="middle" font-family="Arial, sans-serif" font-size="12" font-weight="bold" fill="white">MCP Server</text>
  <text x="490" y="195" text-anchor="middle" font-family="Arial, sans-serif" font-size="10" fill="white">Go Application</text>
  <text x="490" y="208" text-anchor="middle" font-family="Arial, sans-serif" font-size="9" fill="white">Cloud Run Service</text>
  <text x="490" y="220" text-anchor="middle" font-family="Arial, sans-serif" font-size="9" fill="white">Port 8080</text>
  <text x="490" y="232" text-anchor="middle" font-family="Arial, sans-serif" font-size="9" fill="white">JSON-RPC + JWT</text>
  
  <!-- Product Service (move right for more space) -->
  <rect x="680" y="160" width="140" height="80" fill="#4285F4" rx="8"/>
  <text x="750" y="180" text-anchor="middle" font-family="Arial, sans-serif" font-size="12" font-weight="bold" fill="white">Product Service</text>
  <text x="750" y="195" text-anchor="middle" font-family="Arial, sans-serif" font-size="10" fill="white">Microservice</text>
  <text x="750" y="208" text-anchor="middle" font-family="Arial, sans-serif" font-size="9" fill="white">Cloud Run Service</text>
  <text x="750" y="220" text-anchor="middle" font-family="Arial, sans-serif" font-size="9" fill="white">REST API</text>
  <text x="750" y="232" text-anchor="middle" font-family="Arial, sans-serif" font-size="9" fill="white">Business Logic</text>
  
  <!-- Database with Database Icon -->
  <rect x="820" y="320" width="140" height="100" fill="#34A853" rx="8"/>
  
  <!-- Database Icon (cylinder shape) -->
  <ellipse cx="890" cy="345" rx="25" ry="8" fill="white" stroke="#2E7D32" stroke-width="2"/>
  <rect x="865" y="345" width="50" height="30" fill="white" stroke="#2E7D32" stroke-width="2" stroke-dasharray="none"/>
  <ellipse cx="890" cy="375" rx="25" ry="8" fill="white" stroke="#2E7D32" stroke-width="2"/>
  <line x1="865" y1="345" x2="865" y2="375" stroke="#2E7D32" stroke-width="2"/>
  <line x1="915" y1="345" x2="915" y2="375" stroke="#2E7D32" stroke-width="2"/>
  
  <text x="890" y="395" text-anchor="middle" font-family="Arial, sans-serif" font-size="11" font-weight="bold" fill="white">Cloud Datastore</text>
  <text x="890" y="408" text-anchor="middle" font-family="Arial, sans-serif" font-size="9" fill="white">NoSQL Database</text>
  
  <!-- Flow Lines with animation -->
  <style>
    .flow-line {
      stroke-dasharray: 8,6;
      animation: flow 2s linear infinite;
    }
    @keyframes flow {
      0% { stroke-dashoffset: 20; }
      100% { stroke-dashoffset: 0; }
    }
  </style>
  <line x1="180" y1="150" x2="420" y2="190" stroke="#34a853" stroke-width="3" class="flow-line"/>
  <line x1="180" y1="230" x2="420" y2="200" stroke="#4285f4" stroke-width="3" class="flow-line"/>
  <line x1="180" y1="310" x2="420" y2="210" stroke="#fbbc04" stroke-width="3" class="flow-line"/>
  <line x1="560" y1="200" x2="680" y2="200" stroke="#9C27B0" stroke-width="4" class="flow-line"/>
  <line x1="750" y1="240" x2="890" y2="320" stroke="#1976d2" stroke-width="4" class="flow-line"/>
  
  <!-- Arrow heads -->
  <polygon points="415,185 425,190 415,195" fill="#34a853"/>
  <polygon points="415,195 425,200 415,205" fill="#4285f4"/>
  <polygon points="415,205 425,210 415,215" fill="#fbbc04"/>
  <polygon points="615,195 625,200 615,205" fill="#9C27B0"/>
  <polygon points="885,315 895,320 885,325" fill="#1976d2"/>
  
  <!-- Labels -->
  <text x="220" y="145" text-anchor="start" font-family="Arial, sans-serif" font-size="9" fill="#137333">MCP over HTTPS</text>
  <text x="220" y="245" text-anchor="start" font-family="Arial, sans-serif" font-size="9" fill="#1a73e8">HTTPS + CORS</text>
  <text x="220" y="305" text-anchor="start" font-family="Arial, sans-serif" font-size="9" fill="#f9ab00">MCP Protocol</text>
  
  <text x="620" y="190" text-anchor="middle" font-family="Arial, sans-serif" font-size="9" fill="#7B1FA2">REST API</text>
  <text x="830" y="260" text-anchor="middle" font-family="Arial, sans-serif" font-size="9" fill="#1565c0">Database Ops</text>
  
  <!-- Legend -->
  <rect x="80" y="380" width="220" height="170" fill="#ffffff" stroke="#5f6368" rx="5"/>
  <text x="190" y="400" text-anchor="middle" font-family="Arial, sans-serif" font-size="12" font-weight="bold" fill="#202124">Data Flow</text>
  
  <circle cx="100" cy="420" r="6" fill="#34a853"/>
  <text x="115" y="425" font-family="Arial, sans-serif" font-size="10" fill="#202124">MCP JSON-RPC 2.0</text>
  
  <circle cx="100" cy="440" r="6" fill="#9C27B0"/>
  <text x="115" y="445" font-family="Arial, sans-serif" font-size="10" fill="#202124">REST API Calls</text>
  
  <circle cx="100" cy="460" r="6" fill="#1976d2"/>
  <text x="115" y="465" font-family="Arial, sans-serif" font-size="10" fill="#202124">Database Operations</text>
  
  <text x="90" y="490" font-family="Arial, sans-serif" font-size="10" font-weight="bold" fill="#202124">Authentication:</text>
  <text x="90" y="505" font-family="Arial, sans-serif" font-size="9" fill="#5f6368">1. gcloud auth login</text>
  <text x="90" y="515" font-family="Arial, sans-serif" font-size="9" fill="#5f6368">2. Bearer JWT tokens</text>
</svg>
